<?xml version="1.0" standalone="no"?>
<!DOCTYPE svg PUBLIC "-//W3C//DTD SVG 20010904//EN"
 "http://www.w3.org/TR/2001/REC-SVG-20010904/DTD/svg10.dtd">
<svg version="1.0" xmlns="http://www.w3.org/2000/svg"
 width="798.000000pt" height="1280.000000pt" viewBox="0 0 798.000000 1280.000000"
 preserveAspectRatio="xMidYMid meet">
<g transform="translate(0.000000,1280.000000) scale(0.100000,-0.100000)"
fill="#000000" stroke="none">
<path d="M5900 12788 c-285 -39 -360 -52 -465 -79 -226 -57 -398 -137 -668
-308 -296 -188 -602 -293 -812 -277 -168 12 -444 99 -615 193 -36 20 -126 75
-200 123 -207 134 -334 193 -553 256 -385 111 -872 122 -1253 30 -266 -65
-500 -196 -706 -395 -181 -174 -287 -318 -394 -536 -77 -158 -119 -281 -134
-397 -10 -72 -9 -106 5 -200 62 -426 219 -907 510 -1563 37 -82 158 -348 270
-590 193 -419 403 -902 438 -1010 50 -153 49 -408 -3 -1010 -58 -660 -180
-1022 -516 -1520 -190 -282 -319 -499 -448 -755 -185 -366 -276 -594 -315
-792 -12 -57 -26 -122 -31 -146 -6 -23 -10 -51 -10 -62 0 -51 51 -103 713
-720 619 -578 1475 -1011 2408 -1220 153 -34 155 -24 -23 -187 -380 -350 -624
-689 -689 -959 -27 -114 -30 -256 -6 -337 23 -74 74 -127 153 -157 81 -31 276
-39 384 -16 141 30 311 129 516 301 48 41 92 75 97 75 21 0 15 -44 -32 -209
-53 -185 -59 -227 -40 -264 15 -26 50 -56 67 -57 32 -1 123 59 188 124 86 86
127 166 148 289 9 47 22 101 29 119 18 42 65 98 82 98 28 0 76 -97 96 -193 34
-171 64 -231 158 -320 67 -64 128 -96 182 -97 46 0 59 15 68 83 6 48 1 75 -41
223 -64 224 -60 240 38 153 197 -173 374 -278 544 -325 90 -25 277 -25 345 -1
78 27 145 83 180 152 28 55 30 65 29 164 -2 185 -51 334 -177 536 -118 192
-287 387 -524 608 -84 77 -153 146 -153 153 0 16 10 19 203 64 967 225 1899
732 2473 1346 59 64 199 197 311 296 112 99 216 199 230 221 29 46 29 36 -18
270 -72 354 -368 950 -770 1553 -153 230 -214 336 -278 486 -91 212 -151 430
-201 733 -47 282 -61 447 -67 767 -7 369 1 448 62 603 62 159 243 575 432 995
416 920 486 1087 589 1395 122 366 177 620 178 815 0 148 -17 218 -92 385
-120 263 -225 418 -412 606 -284 285 -564 419 -980 468 -52 7 -125 16 -162 21
-80 12 -247 11 -338 -2z m-3373 -432 c37 -8 87 -22 111 -30 116 -41 349 -178
712 -417 320 -211 404 -246 610 -256 249 -12 266 -5 850 372 295 190 340 217
426 255 126 57 228 82 359 87 113 5 136 2 405 -47 407 -74 528 -107 675 -179
152 -76 261 -159 406 -308 127 -133 222 -263 279 -386 54 -116 63 -152 42
-176 -17 -19 -289 -113 -537 -185 -709 -206 -1522 -347 -2285 -396 -672 -43
-505 -45 -1316 15 -679 50 -1071 111 -1679 260 -361 88 -970 272 -999 301 -27
26 -18 68 38 181 275 546 724 817 1496 903 52 5 109 12 125 14 78 9 220 5 282
-8z m-1773 -1662 c33 -9 112 -38 175 -65 231 -101 537 -186 1036 -288 297 -61
308 -64 331 -98 55 -86 236 -725 333 -1183 71 -335 77 -381 211 -1605 27 -253
68 -638 90 -855 22 -217 47 -458 57 -535 25 -208 25 -935 0 -1200 -26 -263
-68 -541 -121 -800 -121 -578 -290 -1342 -302 -1362 -22 -35 -58 -29 -252 41
-397 145 -704 297 -983 487 -139 95 -286 238 -454 439 -159 192 -168 236 -90
460 95 270 202 525 514 1222 216 484 370 900 411 1113 11 61 39 232 61 380 80
538 95 729 63 836 -20 67 -208 547 -612 1564 -366 921 -565 1442 -557 1455 8
13 17 13 89 -6z m6560 7 c10 -16 -50 -173 -484 -1256 -441 -1102 -647 -1629
-682 -1745 -33 -111 -28 -210 36 -655 65 -454 109 -687 161 -860 54 -180 190
-514 345 -850 176 -382 239 -533 413 -995 181 -481 178 -436 37 -625 -115
-155 -218 -262 -360 -376 -321 -257 -662 -439 -1138 -605 -171 -60 -205 -65
-226 -31 -7 12 -68 267 -135 567 -244 1099 -281 1335 -302 1925 -12 325 -7
718 10 870 26 220 144 1312 176 1620 65 622 131 1105 191 1380 64 297 290
1117 320 1163 25 38 68 57 196 86 302 68 1011 247 1088 275 47 17 135 50 195
75 110 44 149 54 159 37z m-3411 -646 c80 -4 223 -2 326 4 101 7 186 9 189 6
11 -11 -27 -36 -208 -134 -134 -73 -194 -101 -219 -101 -26 0 -88 29 -231 106
-107 58 -202 112 -210 120 -27 26 4 31 110 18 55 -7 164 -15 243 -19z m-592
-153 c283 -163 417 -243 433 -261 10 -11 14 -25 10 -35 -7 -18 -444 -315 -475
-323 -11 -3 -19 3 -24 16 -13 41 -123 676 -119 683 9 14 20 9 175 -80z m1533
51 c-3 -21 -31 -180 -62 -353 -47 -259 -60 -315 -74 -318 -18 -4 -465 294
-482 321 -8 13 -6 21 9 36 29 29 577 350 598 351 14 0 16 -6 11 -37z m-775
-580 c79 -46 335 -219 350 -236 7 -9 11 -22 8 -29 -8 -20 -381 -228 -419 -235
-40 -6 -66 6 -297 136 -84 47 -156 92 -158 99 -8 20 19 43 148 132 249 170
284 183 368 133z m-519 -599 c101 -67 180 -126 179 -134 0 -14 -305 -210 -327
-210 -6 0 -13 4 -16 9 -6 9 -66 421 -66 450 0 28 54 1 230 -115z m1105 113 c3
-7 -8 -109 -25 -227 -16 -118 -30 -218 -30 -222 0 -22 -50 2 -190 90 -87 54
-155 104 -155 112 0 18 352 260 378 260 10 0 20 -6 22 -13z m-514 -553 c180
-103 259 -154 259 -168 0 -17 -11 -27 -177 -149 -78 -58 -163 -113 -188 -123
-45 -17 -48 -17 -95 3 -67 28 -359 243 -359 265 -1 18 63 60 258 172 83 48
125 66 151 66 26 0 68 -18 151 -66z m-543 -471 c45 -43 82 -83 82 -90 0 -32
-175 -192 -191 -176 -6 6 -20 90 -31 187 -28 237 -28 238 140 79z m938 102 c4
-8 -1 -79 -10 -157 -23 -200 -26 -218 -39 -218 -15 0 -164 135 -177 160 -6 10
-7 26 -4 34 7 19 202 196 215 196 5 0 12 -7 15 -15z m-493 -339 c31 -13 279
-207 305 -239 8 -9 11 -24 8 -35 -8 -23 -308 -271 -347 -285 -37 -15 -37 -14
-228 143 -151 125 -178 159 -148 183 135 109 281 220 304 232 35 19 65 19 106
1z m-393 -657 c53 -47 80 -77 80 -92 0 -13 -22 -41 -57 -74 -58 -54 -97 -73
-114 -56 -10 10 -33 258 -25 279 10 26 36 14 116 -57z m796 56 c3 -8 1 -72 -5
-142 -14 -171 -18 -175 -113 -97 -101 83 -101 93 2 183 81 71 106 84 116 56z
m-370 -416 c77 -49 224 -160 224 -170 0 -8 -118 -87 -233 -158 -55 -34 -103
-31 -169 9 -128 78 -208 136 -208 151 0 15 168 145 234 181 48 26 95 22 152
-13z m-402 -450 c28 -22 54 -47 59 -54 5 -10 -12 -30 -55 -65 -54 -43 -65 -48
-74 -35 -12 17 -28 171 -19 186 12 18 38 9 89 -32z m721 28 c3 -7 2 -50 -2
-97 -6 -66 -12 -85 -24 -88 -24 -4 -131 86 -122 103 14 23 107 94 126 95 10 0
20 -6 22 -13z m-277 -361 c138 -105 135 -96 62 -150 -33 -25 -86 -59 -116 -77
-70 -40 -101 -36 -192 25 -101 68 -126 91 -119 108 3 9 51 50 107 92 72 54
109 76 130 76 21 0 58 -21 128 -74z m-429 -390 c40 -41 38 -63 -12 -121 -46
-53 -57 -42 -57 59 0 110 12 121 69 62z m675 18 c3 -9 6 -46 6 -84 0 -93 -16
-106 -65 -53 -52 56 -54 77 -14 119 35 37 63 44 73 18z m-285 -303 c133 -115
150 -136 132 -170 -6 -10 -52 -52 -102 -92 -65 -52 -99 -72 -120 -72 -27 0
-129 69 -201 138 -47 44 -38 64 67 156 53 46 104 87 113 91 27 10 53 -1 111
-51z m-388 -408 c31 -33 49 -65 49 -88 0 -26 -81 -106 -104 -103 -20 3 -21 10
-24 107 -4 139 12 157 79 84z m667 35 c8 -8 12 -46 12 -104 0 -141 -9 -149
-84 -83 -64 57 -61 80 23 172 28 31 32 32 49 15z m-255 -357 l72 -69 -20 -22
c-39 -43 -106 -74 -160 -74 -53 0 -137 37 -172 76 -17 19 -16 22 54 89 65 62
77 69 113 69 36 0 48 -7 113 -69z m-419 -262 c39 -24 66 -48 66 -58 -1 -18
-109 -106 -131 -106 -11 0 -15 21 -17 89 -3 84 1 116 12 116 3 0 34 -19 70
-41z m694 -67 c2 -72 -1 -102 -9 -102 -20 0 -139 93 -139 109 0 17 118 101
135 97 6 -1 11 -47 13 -104z m-312 -188 c34 -16 94 -76 94 -94 0 -13 -151
-110 -171 -110 -22 0 -169 98 -169 112 0 16 70 79 105 94 41 18 100 17 141 -2z
m-393 -300 c31 -25 57 -50 57 -55 0 -14 -122 -90 -140 -87 -12 3 -15 19 -15
78 0 81 7 110 27 110 7 0 39 -21 71 -46z m729 -4 c12 -79 9 -130 -7 -136 -21
-8 -135 64 -135 85 0 22 98 103 119 99 10 -2 18 -19 23 -48z m-310 -267 c66
-36 76 -55 41 -82 -38 -31 -127 -54 -176 -47 -51 8 -121 46 -125 68 -4 21 32
55 83 80 51 24 109 18 177 -19z m-424 -263 c25 -11 42 -25 40 -32 -5 -14 -84
-61 -130 -77 -43 -15 -59 7 -46 61 6 24 15 49 21 56 14 18 66 14 115 -8z m763
-7 c21 -53 23 -99 5 -106 -16 -6 -148 53 -160 71 -9 15 10 32 55 46 69 22 88
20 100 -11z m-305 -242 c72 -34 80 -43 57 -67 -61 -60 -215 -77 -325 -35 -60
23 -84 43 -73 62 4 6 35 24 69 40 50 24 74 29 136 29 62 0 86 -5 136 -29z
m-556 -227 c52 -21 51 -43 -4 -73 -60 -33 -81 -24 -72 31 11 66 13 67 76 42z
m911 -23 c13 -43 7 -71 -13 -71 -25 1 -103 45 -103 58 0 13 67 49 92 51 7 1
17 -17 24 -38z m-975 -1326 c8 -20 -55 -120 -154 -244 -112 -140 -145 -174
-222 -226 -74 -51 -139 -71 -193 -61 -48 9 -48 26 0 96 86 129 263 286 443
397 89 54 117 63 126 38z m1048 -15 c66 -28 178 -106 277 -193 141 -123 275
-305 240 -326 -24 -15 -94 0 -167 35 -95 45 -136 87 -322 333 -127 166 -132
196 -28 151z"/>
</g>
</svg>
